<svg width="160" height="43" viewBox="0 0 160 43" fill="none" xmlns="http://www.w3.org/2000/svg">
<g clip-path="url(#clip0_186_578)">
<path d="M28.9186 13.7845H23.1948V38.068H28.9186V13.7845Z" fill="#021747"/>
<path d="M39.5321 21.0247C34.0622 21.0247 30.4688 24.4166 30.4688 29.5311C30.4688 34.6456 34.0622 38.068 39.5321 38.068C45.0019 38.068 48.6257 34.6761 48.6257 29.5311C48.6257 24.3862 45.0019 21.0247 39.5321 21.0247ZM39.5321 33.752C37.4131 33.752 35.9689 32.0903 35.9689 29.592C35.9689 27.0936 37.4131 25.4623 39.5321 25.4623C41.651 25.4623 43.1293 27.1241 43.1293 29.592C43.1293 32.0599 41.6851 33.752 39.5321 33.752Z" fill="#021747"/>
<path d="M58.917 33.6189C56.9459 33.6189 55.5927 32.0104 55.5927 29.573C55.5927 27.1355 56.9459 25.527 58.917 25.527C60.3347 25.527 61.4416 26.1734 62.1845 27.2572L66.1609 24.9376C64.7129 22.4354 62.0632 20.9828 58.7086 20.9828C53.5344 20.9828 50.085 24.4128 50.085 29.6034C50.085 34.794 53.5041 38.068 58.6479 38.068C62.1883 38.068 64.8986 36.6154 66.2253 34.0524L62.1921 31.7328C61.5136 33.0295 60.3764 33.6189 58.9246 33.6189H58.917Z" fill="#021747"/>
<path fill-rule="evenodd" clip-rule="evenodd" d="M13.4111 28.6717C17.505 28.6717 20.9582 25.3482 20.9582 21.2452C20.9582 17.1422 17.505 13.8035 13.4111 13.8035H0V19.4884H12.7591C13.7219 19.4884 14.5028 20.2717 14.5028 21.2376C14.5028 22.2035 13.7219 22.9868 12.7591 22.9868H7.52053L7.49779 28.6717H13.1951C13.2671 28.6717 13.3391 28.6717 13.4149 28.6717H13.4111Z" fill="#021747"/>
<path fill-rule="evenodd" clip-rule="evenodd" d="M19.9804 26.9187C19.916 27.0366 19.3929 28.2877 17.2474 29.2687C15.8828 29.8582 14.3173 29.8582 14.3173 29.8582C14.5106 30.2498 14.5106 30.7175 14.5106 30.8392C14.5106 31.4286 13.9231 32.4059 12.7518 32.3793H5.652V22.9602H0.0078125V38.068H13.4872C16.277 38.068 19.4005 36.1249 20.3785 33.5771C21.3564 31.2271 20.966 28.2915 19.988 26.9187H19.9804Z" fill="#021747"/>
<path d="M98.8168 20.9828C96.0914 20.9828 93.7109 21.6293 91.1068 22.7929L92.604 26.4776C94.378 25.6182 96.1824 25.1581 97.5583 25.1581C99.6394 25.1581 100.708 26.0784 100.708 27.645V27.8314H96.3946C92.2932 27.8922 90.0605 29.7023 90.0605 32.866C90.0605 36.0298 92.1719 38.0528 95.7199 38.0528C97.9526 38.0528 99.6356 37.3189 100.705 35.9347V38.0528H106.057V27.0024C106.027 23.196 103.366 20.9867 98.8054 20.9867L98.8168 20.9828ZM100.712 32.1854C100.375 33.444 99.0291 34.3338 97.4067 34.3338C96.0004 34.3338 95.1741 33.5999 95.1741 32.463C95.1741 31.326 95.9398 30.7442 97.4674 30.7442H100.708V32.1854H100.712Z" fill="#EF8632"/>
<path d="M113.604 13.8035H107.801V38.068H113.604V13.8035Z" fill="#EF8632"/>
<path d="M82.2408 13.7655C79.7125 13.7655 71.3353 13.7655 68.7046 13.7655V38.068L74.3526 38.0566C74.3526 35.5621 74.3943 22.1122 74.4018 19.4124C75.6717 19.4124 80.9103 19.401 81.5926 19.42C82.5478 19.439 83.3022 20.2033 83.3211 21.154C83.3439 22.2073 82.6085 22.9678 81.4978 23.0439L76.1379 23.0933V28.6071L81.4978 28.6603H82.0551C82.5365 28.6603 83.033 28.6413 83.5069 28.5539C86.7251 27.9606 89.1927 25.3406 89.6059 22.1122C90.1556 17.7506 86.6455 13.7769 82.2408 13.7693V13.7655Z" fill="#EF8632"/>
<path d="M159.44 1.6237C159.865 1.18259 159.918 0.55136 159.565 0.212927C159.209 -0.129309 158.58 -0.0532565 158.155 0.384045L153.747 4.94338C153.326 5.38068 152.693 5.46054 152.34 5.1183L151.912 4.70762C151.559 4.36539 151.612 3.73415 152.037 3.29685L152.996 2.30437C153.421 1.86326 153.477 1.23203 153.121 0.893595C152.973 0.749096 152.776 0.680649 152.564 0.680649C152.272 0.680649 151.957 0.809938 151.715 1.06471L134.646 18.6252L130.226 13.7883H116.318L127.466 25.9566H127.421L116.61 37.4025L116.011 38.0376H129.915L134.365 33.3261L134.407 33.2843L143.099 43H157.006L141.647 25.8274L147.966 19.3591L158.989 8.07294C159.414 7.63564 159.47 7.0044 159.114 6.66217C158.966 6.52147 158.769 6.45302 158.557 6.45302C158.269 6.45302 157.95 6.58231 157.708 6.83709L153.072 11.6322C152.647 12.0695 152.018 12.1493 151.662 11.8071L151.233 11.3964C150.881 11.0542 150.938 10.423 151.359 9.98565L159.444 1.6237H159.44ZM140.661 15.0621L140.718 15.0013C141.143 14.564 141.772 14.4842 142.128 14.8264L142.553 15.2371C142.909 15.5793 142.852 16.2105 142.432 16.6478L142.371 16.7125C141.946 17.1498 141.317 17.2258 140.965 16.8836L140.536 16.4729C140.18 16.1307 140.237 15.4994 140.661 15.0621ZM149.687 15.1268L146.101 18.8381C145.676 19.2754 145.047 19.3515 144.695 19.0093L144.266 18.5986C143.91 18.2563 143.967 17.6251 144.391 17.1878L147.977 13.4803C148.398 13.043 149.027 12.9631 149.384 13.3053L149.812 13.716C150.164 14.0583 150.111 14.6895 149.687 15.1268ZM150.369 8.44179L145.809 13.1532C145.388 13.5905 144.759 13.6704 144.403 13.3282L143.974 12.9175C143.622 12.5752 143.675 11.944 144.1 11.5067L148.656 6.79146C149.08 6.35415 149.71 6.2781 150.066 6.61653L150.49 7.03102C150.847 7.36945 150.79 8.00449 150.369 8.44179Z" fill="#EF8632"/>
</g>
<defs>
<clipPath id="clip0_186_578">
<rect width="160" height="43" fill="white"/>
</clipPath>
</defs>
</svg>
