<svg width="216" height="47" viewBox="0 0 216 47" fill="none" xmlns="http://www.w3.org/2000/svg">
<path d="M55.5677 0.135742H44.7227V45.9987H55.5677V0.135742Z" fill="#021747"/>
<path d="M75.67 13.8125C65.31 13.8125 58.5 20.2125 58.5 29.8765C58.5 39.5965 65.31 45.9995 75.67 45.9995C86.03 45.9995 92.899 39.5995 92.899 29.8765C92.899 20.2145 86.031 13.8125 75.67 13.8125ZM75.67 37.8505C71.654 37.8505 68.918 34.7075 68.918 29.9925C68.918 25.3365 71.654 22.1925 75.67 22.1925C79.744 22.1925 82.48 25.3355 82.48 29.9925C82.48 34.7075 79.744 37.8505 75.67 37.8505Z" fill="#021747"/>
<path d="M112.4 37.5965C108.665 37.5965 106.1 34.5625 106.1 29.9525C106.1 25.4015 108.668 22.3085 112.4 22.3085C113.624 22.2854 114.833 22.5731 115.914 23.1447C116.996 23.7162 117.915 24.5529 118.585 25.5765L126.112 21.1995C123.37 16.4725 118.351 13.7305 111.991 13.7305C102.191 13.7305 95.6523 20.2075 95.6523 30.0115C95.6523 39.6395 102.129 46.0005 111.874 46.0005C118.585 46.0005 123.72 43.2575 126.229 38.4145L118.585 34.0385C118.015 35.1712 117.125 36.1119 116.026 36.7442C114.927 37.3766 113.666 37.6729 112.4 37.5965Z" fill="#021747"/>
<path fill-rule="evenodd" clip-rule="evenodd" d="M26.1854 28.2457C28.0517 28.2809 29.9062 27.9437 31.6407 27.2539C33.3751 26.564 34.9546 25.5354 36.2869 24.228C37.6192 22.9207 38.6774 21.3608 39.3999 19.6397C40.1223 17.9186 40.4944 16.0707 40.4944 14.2042C40.4944 12.3376 40.1223 10.4897 39.3999 8.76861C38.6774 7.0475 37.6192 5.48767 36.2869 4.1803C34.9546 2.87294 33.3751 1.84428 31.6407 1.15444C29.9062 0.464604 28.0517 0.127438 26.1854 0.162656H0.773438V10.9007H24.9464C25.8227 10.9007 26.6631 11.2488 27.2827 11.8684C27.9023 12.488 28.2504 13.3284 28.2504 14.2047C28.2504 15.0809 27.9023 15.9213 27.2827 16.5409C26.6631 17.1606 25.8227 17.5087 24.9464 17.5087H15.0204L14.9774 28.2397H25.7724C25.9098 28.2437 26.0474 28.2457 26.1854 28.2457Z" fill="#021747"/>
<path fill-rule="evenodd" clip-rule="evenodd" d="M38.6341 24.9438C38.5081 25.1648 37.5241 27.5328 33.4561 29.3818C31.6869 30.0769 29.8085 30.4527 27.9081 30.4918C28.1641 31.074 28.2903 31.7049 28.2781 32.3408C28.2088 33.1626 27.8228 33.9253 27.2016 34.4677C26.5804 35.0102 25.7727 35.2899 24.9491 35.2478H11.4821V17.4668H0.789062V45.9988H26.3201C31.6071 45.9988 37.5201 42.3278 39.3741 37.5188C41.2231 33.0808 40.4831 27.5328 38.6341 24.9438Z" fill="#021747"/>
<path d="M187.435 13.7324C182.374 13.7885 177.388 14.9556 172.828 17.1514L175.668 24.1064C178.585 22.6153 181.787 21.7656 185.058 21.6144C188.999 21.6144 191.029 23.3534 191.029 26.3094V26.6574H182.855C175.089 26.7734 170.855 30.1924 170.855 36.1624C170.855 41.9004 174.856 45.9624 181.578 45.9624C185.809 45.9624 188.997 44.5714 191.026 41.9624V45.9624H201.167V25.0924C201.112 17.9054 196.071 13.7324 187.435 13.7324ZM191.029 34.8874C190.392 37.2634 187.841 38.9444 184.769 38.9444C182.103 38.9444 180.537 37.5534 180.537 35.4084C180.537 33.2084 181.987 32.1624 184.885 32.1624H191.029V34.8874Z" fill="#EF8632"/>
<path d="M215.439 0.170898H204.445V45.9979H215.439V0.170898Z" fill="#EF8632"/>
<path d="M156.589 0.105118C151.795 0.0971181 135.924 0.105118 130.941 0.105118V46.0051L141.641 45.9831C141.641 41.2711 141.719 15.8751 141.733 10.7751C144.143 10.7751 154.061 10.7551 155.362 10.7851C156.226 10.8012 157.051 11.1511 157.662 11.7614C158.274 12.3718 158.625 13.1952 158.643 14.0591C158.662 14.5234 158.585 14.9865 158.419 15.4205C158.254 15.8545 158.001 16.2504 157.678 16.5841C157.355 16.9179 156.967 17.1827 156.539 17.3625C156.111 17.5423 155.65 17.6333 155.185 17.6301L145.031 17.7201V28.1301L155.185 28.2301H156.237C157.159 28.2434 158.079 28.1748 158.988 28.0251C162.456 27.4221 165.571 25.5408 167.719 22.7529C169.866 19.9649 170.891 16.473 170.589 12.9666C170.288 9.46025 168.682 6.19438 166.09 3.81393C163.498 1.43349 160.108 0.111532 156.588 0.109116L156.589 0.105118Z" fill="#EF8632"/>
</svg>
